<svg width="462.743" height="462.743" fill="white" xmlns="http://www.w3.org/2000/svg" style="vector-effect: non-scaling-stroke;" stroke="null">

 <g stroke="null" >
  <title stroke="null" >background</title>
  <rect stroke="null" fill="none" id="canvas_background" height="402" width="582" y="-1" x="-1"/>
 </g>
 <g stroke="null" >
  <title stroke="null" >Layer 1</title>
  <g style="vector-effect: non-scaling-stroke;" stroke="null" id="svg_1">
   <g style="vector-effect: non-scaling-stroke;" stroke="null" id="svg_2">
    <path style="vector-effect: non-scaling-stroke;" stroke="null" id="svg_3" d="m255.039,133.688l-103.734,42.447l-62.869,0c-6.188,0 -11.207,5.017 -11.207,11.206l0,88.062c0,6.188 5.019,11.205 11.207,11.205l62.869,0l103.734,42.444c1.362,0.56 2.807,0.835 4.241,0.835c2.192,0 4.372,-0.643 6.249,-1.9c3.097,-2.082 4.958,-5.571 4.958,-9.307l0,-174.62c0,-3.735 -1.861,-7.223 -4.958,-9.306c-3.102,-2.085 -7.043,-2.479 -10.49,-1.066zm-155.396,64.86l42.66,0l0,65.648l-42.66,0l0,-65.648zm148.43,103.437l-83.356,-34.105l0,-73.014l83.356,-34.11l0,141.229z"/>
    <path style="vector-effect: non-scaling-stroke;" stroke="null" id="svg_4" d="m304.266,318.973c2.189,2.188 5.057,3.282 7.925,3.282c2.866,0 5.739,-1.094 7.923,-3.282c48.309,-48.302 48.309,-126.899 0,-175.203c-4.371,-4.378 -11.476,-4.378 -15.847,0c-4.379,4.375 -4.379,11.472 0,15.848c39.562,39.565 39.562,103.94 0,143.507c-4.379,4.375 -4.379,11.473 -0.001,15.848z"/>
    <path style="vector-effect: non-scaling-stroke;" stroke="null" id="svg_5" d="m359.589,104.307c-4.373,-4.379 -11.475,-4.379 -15.848,0c-4.378,4.374 -4.378,11.471 0,15.847c61.326,61.325 61.326,161.112 0,222.437c-4.378,4.375 -4.378,11.474 0,15.849c2.188,2.188 5.057,3.282 7.924,3.282s5.74,-1.094 7.924,-3.282c70.064,-70.067 70.064,-184.07 0,-254.133z"/>
    <path style="vector-effect: non-scaling-stroke;" stroke="null" id="svg_6" d="m395.305,68.583c-4.378,-4.377 -11.475,-4.377 -15.847,0c-4.378,4.375 -4.378,11.472 0,15.848c39.25,39.249 60.871,91.433 60.871,146.938c0,55.509 -21.621,107.692 -60.871,146.942c-4.378,4.375 -4.378,11.473 0,15.847c2.189,2.188 5.056,3.282 7.924,3.282c2.867,0 5.734,-1.095 7.923,-3.282c43.487,-43.481 67.438,-101.294 67.438,-162.789c0,-61.492 -23.951,-119.305 -67.438,-162.786z"/>
    <path style="vector-effect: non-scaling-stroke;" stroke="null" id="svg_7" d="m306.165,426.548c-23.842,9.144 -49.008,13.778 -74.798,13.778c-115.216,0 -208.952,-93.733 -208.952,-208.952s93.736,-208.956 208.952,-208.956c26.506,0 52.323,4.89 76.739,14.534c5.752,2.284 12.264,-0.548 14.541,-6.304c2.274,-5.757 -0.55,-12.267 -6.306,-14.542c-27.048,-10.686 -55.64,-16.102 -84.975,-16.102c-127.576,0 -231.366,103.791 -231.366,231.37c0,127.577 103.79,231.365 231.366,231.365c28.542,0 56.411,-5.135 82.825,-15.269c5.777,-2.215 8.662,-8.693 6.444,-14.476c-2.212,-5.776 -8.687,-8.67 -14.47,-6.446z"/>
   </g>
  </g>
  <g stroke="null" id="svg_8"/>
  <g stroke="null" id="svg_9"/>
  <g stroke="null" id="svg_10"/>
  <g stroke="null" id="svg_11"/>
  <g stroke="null" id="svg_12"/>
  <g stroke="null" id="svg_13"/>
  <g stroke="null" id="svg_14"/>
  <g stroke="null" id="svg_15"/>
  <g stroke="null" id="svg_16"/>
  <g stroke="null" id="svg_17"/>
  <g stroke="null" id="svg_18"/>
  <g stroke="null" id="svg_19"/>
  <g stroke="null" id="svg_20"/>
  <g stroke="null" id="svg_21"/>
  <g stroke="null" id="svg_22"/>
  <line stroke="white" style="vector-effect: non-scaling-stroke;" stroke-linecap="undefined" stroke-linejoin="undefined" id="svg_23" y2="474.824631" x2="472.871521" y1="1.824618" x1="-0.128479" fill-opacity="null" stroke-opacity="null" stroke-width="1.5" fill="none"/>
  <line stroke="white" stroke-linecap="undefined" stroke-linejoin="undefined" id="svg_25" y2="491.824643" x2="489.87154" y1="-5.675344" x1="-6.628491" fill-opacity="null" stroke-opacity="null" stroke-width="1.5" fill="none"/>
  <line stroke="white" stroke-linecap="undefined" stroke-linejoin="undefined" id="svg_27" y2="473.824631" x2="472.871521" y1="-3.175358" x1="-3.128477" fill-opacity="null" stroke-opacity="null" stroke-width="1.5" fill="none"/>
  <line stroke="white" stroke-linecap="undefined" stroke-linejoin="undefined" id="svg_28" y2="473.848462" x2="473.621484" y1="-1.500017" x1="-4.378503" fill-opacity="null" stroke-opacity="null" stroke-width="1.5" fill="none"/>
  <line stroke="white" stroke-linecap="undefined" stroke-linejoin="undefined" id="svg_29" y2="483.824614" x2="481.871505" y1="-0.175379" x1="-4.128487" fill-opacity="null" stroke-opacity="null" stroke-width="3.5" fill="none"/>

 </g>
</svg>