<?xml version="1.0" encoding="iso-8859-1"?>
<!-- Generator: Adobe Illustrator 16.0.0, SVG Export Plug-In . SVG Version: 6.00 Build 0)  -->
<!DOCTYPE svg PUBLIC "-//W3C//DTD SVG 1.1//EN" "http://www.w3.org/Graphics/SVG/1.1/DTD/svg11.dtd">
<svg version="1.1" id="Capa_1" xmlns="http://www.w3.org/2000/svg" xmlns:xlink="http://www.w3.org/1999/xlink" x="0px" y="0px"
	 width="462.743px" height="462.743px" fill="white" viewBox="0 0 462.743 462.743" style="enable-background:new 0 0 462.743 462.743;"
	 xml:space="preserve">
<g>
	<g>
		<path d="M255.039,133.688l-103.734,42.447H88.436c-6.188,0-11.207,5.017-11.207,11.206v88.062c0,6.188,5.019,11.205,11.207,11.205
			h62.869l103.734,42.444c1.362,0.56,2.807,0.835,4.241,0.835c2.192,0,4.372-0.643,6.249-1.9c3.097-2.082,4.958-5.571,4.958-9.307
			v-174.62c0-3.735-1.861-7.223-4.958-9.306C262.427,132.669,258.486,132.275,255.039,133.688z M99.643,198.548h42.66v65.648h-42.66
			V198.548z M248.073,301.985l-83.356-34.105v-73.014l83.356-34.11V301.985z"/>
		<path d="M304.266,318.973c2.189,2.188,5.057,3.282,7.925,3.282c2.866,0,5.739-1.094,7.923-3.282
			c48.309-48.302,48.309-126.899,0-175.203c-4.371-4.378-11.476-4.378-15.847,0c-4.379,4.375-4.379,11.472,0,15.848
			c39.562,39.565,39.562,103.94,0,143.507C299.888,307.5,299.888,314.598,304.266,318.973z"/>
		<path d="M359.589,104.307c-4.373-4.379-11.475-4.379-15.848,0c-4.378,4.374-4.378,11.471,0,15.847
			c61.326,61.325,61.326,161.112,0,222.437c-4.378,4.375-4.378,11.474,0,15.849c2.188,2.188,5.057,3.282,7.924,3.282
			s5.74-1.094,7.924-3.282C429.653,288.373,429.653,174.37,359.589,104.307z"/>
		<path d="M395.305,68.583c-4.378-4.377-11.475-4.377-15.847,0c-4.378,4.375-4.378,11.472,0,15.848
			c39.25,39.249,60.871,91.433,60.871,146.938c0,55.509-21.621,107.692-60.871,146.942c-4.378,4.375-4.378,11.473,0,15.847
			c2.189,2.188,5.056,3.282,7.924,3.282c2.867,0,5.734-1.095,7.923-3.282c43.487-43.481,67.438-101.294,67.438-162.789
			C462.743,169.877,438.792,112.064,395.305,68.583z"/>
		<path d="M306.165,426.548c-23.842,9.144-49.008,13.778-74.798,13.778c-115.216,0-208.952-93.733-208.952-208.952
			S116.151,22.418,231.367,22.418c26.506,0,52.323,4.89,76.739,14.534c5.752,2.284,12.264-0.548,14.541-6.304
			c2.274-5.757-0.55-12.267-6.306-14.542C289.293,5.42,260.701,0.004,231.366,0.004C103.79,0.004,0,103.795,0,231.374
			c0,127.577,103.79,231.365,231.366,231.365c28.542,0,56.411-5.135,82.825-15.269c5.777-2.215,8.662-8.693,6.444-14.476
			C318.423,427.218,311.948,424.324,306.165,426.548z"/>
	</g>
</g>
<g>
</g>
<g>
</g>
<g>
</g>
<g>
</g>
<g>
</g>
<g>
</g>
<g>
</g>
<g>
</g>
<g>
</g>
<g>
</g>
<g>
</g>
<g>
</g>
<g>
</g>
<g>
</g>
<g>
</g>
</svg>
