<svg width="36" height="30" fill="none" xmlns="http://www.w3.org/2000/svg"><path d="M32.205 15l3.465-3.465c.22-.22.33-.488.33-.801 0-.314-.11-.582-.33-.802L34.068 8.33c-.22-.22-.488-.33-.802-.33-.313 0-.581.11-.801.33L29 11.795 25.535 8.33c-.22-.22-.488-.33-.801-.33-.314 0-.582.11-.802.33L22.33 9.932c-.22.22-.33.488-.33.802 0 .313.11.581.33.801L25.795 15l-3.465 3.465c-.22.22-.33.488-.33.801 0 .314.11.582.33.802l1.602 1.602c.22.22.488.33.802.33.313 0 .581-.11.801-.33L29 18.205l3.465 3.465c.22.22.487.33.801.33.315 0 .582-.11.802-.33l1.602-1.602c.22-.22.33-.488.33-.802 0-.313-.11-.581-.33-.801L32.205 15zM18.333 0c-.451 0-.842.156-1.173.47L8.49 8.683H1.666c-.452 0-.842.157-1.172.47-.33.312-.495.683-.495 1.11v9.472c0 .427.165.798.495 1.11.33.313.721.47 1.172.47H8.49l8.671 8.215c.33.313.72.469 1.173.469.452 0 .842-.156 1.172-.47.33-.312.495-.681.495-1.11V1.58c0-.428-.165-.798-.494-1.11-.33-.314-.72-.47-1.172-.47h-.001z" fill="#B3B3B3"/></svg>