<svg width="38" height="30" fill="none" xmlns="http://www.w3.org/2000/svg"><path d="M17.86 0L3.63 10.42v8.65l14.23 10.42c-.03-22.23 0-11.32 0-29.49z" fill="#B3B3B3"/><path d="M0 21.92h7.47V7.56H0v14.36zm27 7.22a1.74 1.74 0 01-1.61-1.07 1.761 1.761 0 01.93-2.31 11.82 11.82 0 003.78-2.56 12 12 0 003.49-8.45 12 12 0 00-3.52-8.45 12 12 0 00-3.78-2.57 1.76 1.76 0 01-.93-2.3A1.72 1.72 0 0127.65.5a15.49 15.49 0 019.41 14.22c-.001 2.06-.412 4.1-1.21 6a15.298 15.298 0 01-3.31 4.91A15.2 15.2 0 0127.65 29a1.63 1.63 0 01-.65.14z" fill="#B3B3B3"/><path d="M23.69 22.08a1.65 1.65 0 01-.64-3.17 4.5 4.5 0 002.74-4.16 4.421 4.421 0 00-.35-1.75 4.5 4.5 0 00-1-1.43 4.618 4.618 0 00-1.43-1 1.64 1.64 0 011.28-3 7.84 7.84 0 012.51 12.7 7.65 7.65 0 01-2.47 1.67c-.202.09-.42.137-.64.14z" fill="#B3B3B3"/></svg>