<svg width="195" height="50" fill="none" xmlns="http://www.w3.org/2000/svg"><path d="M49 35H0L24.5 9 49 35zM13.307 22.13l3.337 3.54 3.337-3.54-3.337-3.549-3.336 3.55zm3.337 11.875l3.337-3.539-3.337-3.55-3.336 3.55 3.336 3.54zm15.764 0l3.337-3.539-3.337-3.55-3.389 3.55 3.39 3.54zm-3.94-19.602a.374.374 0 01-.08.094 269.234 269.234 0 01-3.152 3.351c-.092.094 0 .157 0 .241l3.074 3.267.144.136 3.337-3.529-3.324-3.56zM8.787 34.005l.132-.136 3.074-3.256a.199.199 0 00.076-.152.199.199 0 00-.076-.152c-.933-.963-1.84-1.948-2.759-2.922l-.447-.47-3.336 3.549 3.336 3.54zm8.447-16.052l3.337 3.54.105-.095 3.14-3.33c.105-.115 0-.178 0-.262l-3.074-3.246-.131-.136-3.377 3.529zm0 8.377l3.337 3.54.17-.168c1-1.048 2.01-2.095 3.022-3.215a.23.23 0 00.067-.074.184.184 0 00.023-.088.197.197 0 00-.023-.09.23.23 0 00-.067-.073c-.945-.994-1.891-1.99-2.824-2.994l-.368-.377-3.337 3.539zm15.764 0l3.337 3.54 3.337-3.54-3.337-3.54L33 26.33zm-4.532-3.55v.073L25.3 26.215c-.105.094-.065.157 0 .24l2.943 3.142c.079.094.17.188.276.293l3.337-3.54-3.39-3.57zM12.73 29.848a.293.293 0 01.065-.084l3.166-3.36c.092-.106 0-.158 0-.242l-3.113-3.267a.713.713 0 00-.145-.125L9.38 26.298l3.35 3.55zm19.626-4.188l3.337-3.54-3.337-3.528-3.337 3.539 3.337 3.529zm-7.882-8.377l3.337-3.54-3.285-3.466h-.065l-3.206 3.435a.135.135 0 00-.03.084c0 .03.01.059.03.084l3.219 3.403zm0 8.377l3.337-3.54-3.311-3.539-3.337 3.55 3.31 3.529zm0 8.377l3.337-3.54-3.337-3.55-3.31 3.519 3.31 3.57zm15.764 0l3.337-3.54-3.324-3.518h-.066l-3.218 3.382c-.105.115 0 .168 0 .241l2.627 2.838.644.597zm-38.346.199h5.99l-2.969-3.142-3.021 3.142zm39.278 0h5.938l-2.969-3.142-2.969 3.142zm-17.616 0l-2.982-3.142-2.982 3.142h5.964zm9.76 0h5.938l-2.968-3.142-2.97 3.142zm-1.917 0l-2.97-3.142-2.968 3.142h5.938zm-15.764 0l-2.97-3.142-2.968 3.142h5.938zm55.627-.516h.14c.15 0 .28-.047.392-.14.112-.112.205-.243.28-.392a1.51 1.51 0 00.196-.476c.056-.168.084-.327.084-.476v-14.98c0-.13-.028-.28-.084-.448a1.51 1.51 0 00-.196-.476 1.114 1.114 0 00-.28-.364.537.537 0 00-.392-.168h-.14v-.28h4.032v.28h-.14c-.15 0-.28.056-.392.168a1.114 1.114 0 00-.28.364 3.62 3.62 0 00-.196.476 2.094 2.094 0 00-.056.448v15.708h6.132c.355 0 .663-.084.924-.252.261-.168.476-.373.644-.616.187-.261.317-.532.392-.812.093-.299.14-.57.14-.812h.28V34H71.26v-.28zm26.303-18.48c1.456 0 2.763.261 3.92.784 1.158.504 2.138 1.195 2.94 2.072a8.682 8.682 0 011.876 3.024 9.701 9.701 0 01.672 3.584c0 1.4-.261 2.688-.784 3.864a8.892 8.892 0 01-2.1 3.024 10.082 10.082 0 01-3.136 1.988c-1.176.467-2.436.7-3.78.7-1.437 0-2.735-.261-3.892-.784a9.172 9.172 0 01-2.912-2.072 9.286 9.286 0 01-1.82-2.968 9.696 9.696 0 01-.644-3.5c0-1.195.215-2.37.644-3.528a9.548 9.548 0 011.876-3.136c.84-.915 1.858-1.652 3.052-2.212 1.195-.56 2.558-.84 4.088-.84zm-.028 18.06c1.25-.056 2.343-.336 3.276-.84.952-.523 1.746-1.176 2.38-1.96a8.127 8.127 0 001.4-2.632 8.885 8.885 0 00.476-2.828 9.178 9.178 0 00-.56-3.108 9.373 9.373 0 00-1.596-2.828 8.075 8.075 0 00-2.492-2.072c-.952-.541-2.025-.812-3.22-.812-1.157 0-2.193.261-3.108.784a7.948 7.948 0 00-2.352 1.96 8.927 8.927 0 00-1.456 2.688 9.021 9.021 0 00-.504 2.912c0 1.027.196 2.063.588 3.108a9.986 9.986 0 001.624 2.8 8.522 8.522 0 002.436 2.044 6.353 6.353 0 003.108.784zm16.893-17.78h3.976v.28h-.14a.538.538 0 00-.392.168 1.502 1.502 0 00-.308.364c-.075.15-.131.308-.168.476a2.113 2.113 0 00-.056.448v11.06c0 .728.075 1.4.224 2.016.149.616.401 1.148.756 1.596.355.448.821.803 1.4 1.064.579.243 1.288.364 2.128.364.933 0 1.68-.15 2.24-.448.56-.299.989-.681 1.288-1.148a4.332 4.332 0 00.588-1.624c.093-.597.14-1.185.14-1.764V17.256c0-.13-.019-.28-.056-.448a1.51 1.51 0 00-.196-.476 1.118 1.118 0 00-.28-.364.508.508 0 00-.364-.168h-.14v-.28h3.052v.28h-.14a.538.538 0 00-.392.168 2.055 2.055 0 00-.28.364c-.075.15-.131.308-.168.476a2.113 2.113 0 00-.056.448v11.032c0 1.213-.149 2.212-.448 2.996-.299.765-.709 1.372-1.232 1.82a4.327 4.327 0 01-1.848.924 9.338 9.338 0 01-2.212.252 9.43 9.43 0 01-2.352-.28 4.327 4.327 0 01-1.848-.924c-.523-.448-.933-1.055-1.232-1.82-.299-.784-.448-1.764-.448-2.94v-11.06c0-.13-.019-.28-.056-.448a1.51 1.51 0 00-.196-.476 1.118 1.118 0 00-.28-.364.508.508 0 00-.364-.168h-.14v-.28zm23.648.98c0 .112.028.252.084.42l4.928 13.272 4.928-13.412a.941.941 0 00.056-.168.81.81 0 00.028-.168c0-.224-.094-.383-.28-.476a.869.869 0 00-.476-.168v-.28h3.052v.28c-.28 0-.542.075-.784.224-.224.15-.402.401-.532.756l-6.412 17.556-6.552-17.472a1.967 1.967 0 00-.504-.728 1.166 1.166 0 00-.784-.336v-.28h3.976v.28a.82.82 0 00-.504.196c-.15.112-.224.28-.224.504zm23 17.22h.14V34h-3.948v-.28h.14a.51.51 0 00.364-.168c.112-.112.205-.243.28-.392.093-.15.158-.308.196-.476.037-.187.056-.355.056-.504V17.256c0-.13-.019-.28-.056-.448a1.534 1.534 0 00-.196-.476 1.118 1.118 0 00-.28-.364.51.51 0 00-.364-.168h-.14v-.28h4.872c1.866 0 3.304.364 4.312 1.092 1.026.728 1.54 1.801 1.54 3.22 0 .71-.122 1.335-.364 1.876-.224.523-.532.98-.924 1.372a4.942 4.942 0 01-1.4.924 8 8 0 01-1.68.504l2.016 3.08c.485.747.98 1.484 1.484 2.212.504.71.998 1.447 1.484 2.212.13.187.27.383.42.588.168.205.336.392.504.56.186.168.373.308.56.42.205.093.41.14.616.14V34h-1.204c-.747 0-1.363-.177-1.848-.532a5.478 5.478 0 01-1.176-1.288 330.07 330.07 0 01-2.52-3.752c-.822-1.27-1.643-2.52-2.464-3.752a50.62 50.62 0 00-.672-.056 43.73 43.73 0 01-.644-.112v7.672c0 .15.018.317.056.504.037.168.093.327.168.476.093.15.186.28.28.392a.536.536 0 00.392.168zm-.896-17.248v7.112h.14c.149.019.382.037.7.056h1.232c.392 0 .802-.056 1.232-.168.448-.13.858-.336 1.232-.616.392-.299.709-.681.952-1.148.261-.467.392-1.055.392-1.764 0-.71-.14-1.288-.42-1.736a2.807 2.807 0 00-1.12-1.064c-.467-.261-1.036-.439-1.708-.532a16.2 16.2 0 00-2.212-.14h-.42zm17.209 17.248h.14c.149 0 .28-.047.392-.14.112-.112.205-.243.28-.392a1.51 1.51 0 00.196-.476c.056-.168.084-.327.084-.476v-14.98c0-.13-.028-.28-.084-.448a1.51 1.51 0 00-.196-.476 1.118 1.118 0 00-.28-.364.538.538 0 00-.392-.168h-.14v-.28h10.78v2.604h-.28a1.818 1.818 0 00-.504-1.12c-.299-.336-.765-.504-1.4-.504h-5.628v7.084h4.648c.429 0 .784-.13 1.064-.392.299-.261.448-.57.448-.924h.28v3.5h-.28c0-.336-.14-.625-.42-.868-.28-.243-.644-.364-1.092-.364h-4.648v8.484h6.132c.355 0 .663-.084.924-.252.261-.168.476-.364.644-.588.187-.243.317-.495.392-.756.093-.28.14-.513.14-.7h.28V34h-11.48v-.28z" fill="#fff"/></svg>