<svg width="76" height="17" fill="#fff" xmlns="http://www.w3.org/2000/svg"><path d="M11.074 9.383c0 1.088-.283 1.923-.848 2.503-.559.58-1.343.87-2.353.87-1.031 0-1.862-.383-2.492-1.15-.63-.773-.945-1.79-.945-3.05V7.75c0-1.239.318-2.242.956-3.008.637-.766 1.464-1.15 2.481-1.15 1.024 0 1.815.298 2.374.892.559.588.838 1.411.838 2.471h-.559c0-.938-.229-1.636-.687-2.095-.458-.465-1.114-.698-1.966-.698-.852 0-1.54.33-2.062.988-.523.66-.785 1.544-.785 2.654v.795c0 1.067.258 1.93.774 2.588.523.652 1.214.978 2.073.978 1.762 0 2.643-.927 2.643-2.782h.558zM.923 8.169c0 1.346.315 2.6.945 3.76.638 1.153 1.497 2.059 2.578 2.717a6.648 6.648 0 003.502.989c1.26 0 2.435-.337 3.524-1.01a7.183 7.183 0 002.567-2.729 7.72 7.72 0 00.935-3.727c0-1.34-.312-2.578-.935-3.717a7.076 7.076 0 00-2.578-2.718A6.612 6.612 0 007.948.735a6.683 6.683 0 00-3.491.978c-1.089.652-1.951 1.554-2.589 2.707a7.652 7.652 0 00-.945 3.749zm-.602 0a8.36 8.36 0 011-4.028 7.533 7.533 0 012.782-2.922A7.322 7.322 0 017.948.145c1.375 0 2.654.358 3.835 1.074a7.432 7.432 0 012.782 2.922 8.304 8.304 0 011.01 4.028 8.395 8.395 0 01-.977 3.985 7.682 7.682 0 01-2.761 2.965 7.2 7.2 0 01-3.889 1.107c-1.41 0-2.71-.37-3.9-1.107a7.708 7.708 0 01-2.75-2.965A8.394 8.394 0 01.322 8.17zM37.161 16h-9.357v-.58l5.339-6.155c.873-1.024 1.521-1.934 1.944-2.729.43-.795.644-1.525.644-2.191 0-1.146-.333-2.034-.999-2.664-.666-.638-1.604-.956-2.814-.956-.73 0-1.396.175-1.998.526a3.759 3.759 0 00-1.418 1.46 4.23 4.23 0 00-.505 2.063h-.58c0-.837.193-1.614.58-2.33A4.296 4.296 0 0129.608.756c.688-.408 1.458-.612 2.31-.612 1.39 0 2.47.368 3.244 1.106.773.738 1.16 1.769 1.16 3.094 0 1.217-.684 2.675-2.052 4.372l-.977 1.192-4.727 5.51h8.594V16zm13.751-6.38c0 2.097-.408 3.723-1.224 4.876-.817 1.146-1.963 1.719-3.438 1.719-1.468 0-2.617-.58-3.448-1.74-.831-1.16-1.246-2.793-1.246-4.899V6.74c0-2.077.408-3.695 1.224-4.855C43.604.717 44.753.134 46.228.134c1.483 0 2.632.583 3.449 1.75.823 1.16 1.235 2.794 1.235 4.9v2.835zm-.58-2.88c0-1.898-.358-3.376-1.074-4.436-.71-1.06-1.719-1.59-3.03-1.59-1.317 0-2.33.533-3.04 1.6-.701 1.06-1.052 2.554-1.052 4.48v2.804c0 1.89.361 3.37 1.085 4.436.723 1.067 1.733 1.6 3.029 1.6 1.303 0 2.31-.533 3.019-1.6.709-1.067 1.063-2.564 1.063-4.49V6.74zM65.266 16h-9.357v-.58l5.339-6.155c.874-1.024 1.522-1.934 1.944-2.729.43-.795.645-1.525.645-2.191 0-1.146-.333-2.034-1-2.664-.665-.638-1.603-.956-2.814-.956-.73 0-1.396.175-1.998.526a3.76 3.76 0 00-1.418 1.46 4.241 4.241 0 00-.505 2.063h-.58c0-.837.194-1.614.58-2.33A4.297 4.297 0 0157.715.756C58.4.349 59.17.145 60.024.145c1.389 0 2.47.368 3.244 1.106.773.738 1.16 1.769 1.16 3.094 0 1.217-.684 2.675-2.052 4.372l-.978 1.192-4.726 5.51h8.594V16zm10.131 0h-.58V1.09l-4.49 1.686v-.633L75.28.316h.118V16z"/></svg>